<svg id="visual" viewBox="0 0 900 600" width="900" height="600" xmlns="http://www.w3.org/2000/svg" xmlns:xlink="http://www.w3.org/1999/xlink" version="1.1"><rect width="900" height="600" fill="#FFFFFF"></rect><g><g transform="translate(97 367)"><path d="M44 -14.5C49.1 1.5 39.9 21.9 25.1 32.1C10.3 42.3 -10.2 42.3 -23.9 32.5C-37.7 22.6 -44.6 3 -39.4 -13C-34.3 -28.9 -17.2 -41.1 1.1 -41.5C19.4 -41.9 38.8 -30.4 44 -14.5Z" fill="#28bf96"></path></g><g transform="translate(843 197)"><path d="M20.6 -6.1C23.5 2.1 20.3 12.8 12.9 18.3C5.5 23.8 -6 24 -12.6 18.9C-19.2 13.7 -20.8 3.2 -17.9 -5C-14.9 -13.3 -7.5 -19.2 0.7 -19.5C8.9 -19.7 17.8 -14.2 20.6 -6.1Z" fill="#28bf96"></path></g><g transform="translate(99 186)"><path d="M18 -5.8C20.2 0.8 16.6 9.3 10.2 13.9C3.9 18.4 -5.2 19 -11.4 14.7C-17.7 10.4 -21.2 1.2 -18.9 -5.8C-16.5 -12.7 -8.3 -17.3 -0.2 -17.3C7.9 -17.2 15.8 -12.5 18 -5.8Z" fill="#28bf96"></path></g><g transform="translate(765 333)"><path d="M5.8 -1.9C6.7 0.8 5.9 3.9 3.9 5.4C1.9 6.8 -1.3 6.6 -3.7 4.9C-6.1 3.2 -7.6 0.1 -6.8 -2.4C-6 -4.9 -3 -6.9 -0.3 -6.8C2.5 -6.7 4.9 -4.6 5.8 -1.9Z" fill="#28bf96"></path></g><g transform="translate(347 411)"><path d="M16.7 -5.3C18.7 0.7 15.4 8.6 9.7 12.5C4.1 16.3 -3.8 16.2 -8.7 12.5C-13.5 8.9 -15.3 1.6 -13.4 -4.3C-11.5 -10.3 -5.7 -15 0.8 -15.2C7.4 -15.5 14.8 -11.3 16.7 -5.3Z" fill="#28bf96"></path></g><g transform="translate(355 233)"><path d="M23.5 -7.5C26.6 1.8 22.5 13.6 14.4 19.3C6.3 25.1 -5.8 24.8 -12.9 19.3C-20 13.7 -22.2 2.9 -19.2 -6.3C-16.2 -15.6 -8.1 -23.2 1 -23.5C10.2 -23.9 20.4 -16.9 23.5 -7.5Z" fill="#28bf96"></path></g><g transform="translate(564 203)"><path d="M16.8 -5.3C19.4 2.5 17.4 11.8 11.6 16.1C5.8 20.3 -3.8 19.5 -9.9 14.8C-16 10.1 -18.5 1.6 -16.3 -5.7C-14 -13.1 -7 -19.3 0.1 -19.3C7.1 -19.3 14.2 -13.1 16.8 -5.3Z" fill="#28bf96"></path></g><g transform="translate(138 564)"><path d="M33.8 -12C38.2 2.5 32.2 19.3 20.9 27.1C9.6 34.9 -7 33.7 -18.7 25.3C-30.5 16.9 -37.3 1.3 -33.4 -12.6C-29.4 -26.4 -14.7 -38.5 0 -38.5C14.7 -38.5 29.5 -26.4 33.8 -12Z" fill="#28bf96"></path></g><g transform="translate(752 66)"><path d="M13.2 -4.1C15.3 2.2 14 9.8 9.5 13.1C4.9 16.4 -2.8 15.4 -8.5 11.4C-14.2 7.3 -18 0.1 -16.2 -5.7C-14.5 -11.4 -7.2 -15.8 -0.9 -15.5C5.5 -15.3 11.1 -10.3 13.2 -4.1Z" fill="#28bf96"></path></g><g transform="translate(534 21)"><path d="M6 -2C6.9 0.7 6 3.9 4 5.2C2 6.6 -1 6.1 -3.1 4.6C-5.2 3 -6.3 0.3 -5.6 -2.1C-4.9 -4.5 -2.5 -6.6 0.1 -6.7C2.6 -6.7 5.2 -4.6 6 -2Z" fill="#28bf96"></path></g><g transform="translate(729 512)"><path d="M5.2 -1.7C6 0.8 5.4 3.8 3.7 5.1C1.9 6.4 -1.2 6.1 -3.1 4.6C-5 3.2 -5.8 0.5 -5.1 -1.8C-4.4 -4.2 -2.2 -6.2 0 -6.2C2.2 -6.2 4.3 -4.2 5.2 -1.7Z" fill="#28bf96"></path></g><g transform="translate(899 576)"><path d="M11.3 -3.8C12.6 0.6 10.5 6 6.6 8.7C2.8 11.3 -2.7 11.3 -6.2 8.7C-9.7 6.1 -11.3 0.9 -9.9 -3.4C-8.6 -7.8 -4.3 -11.4 0.3 -11.5C4.9 -11.6 9.9 -8.2 11.3 -3.8Z" fill="#28bf96"></path></g><g transform="translate(300 34)"><path d="M24.6 -7.6C28.2 3.2 25 16.5 15.8 23.6C6.7 30.7 -8.4 31.5 -18.2 24.5C-28.1 17.5 -32.7 2.7 -28.8 -8.5C-24.9 -19.7 -12.4 -27.3 -1 -27C10.5 -26.7 21 -18.4 24.6 -7.6Z" fill="#28bf96"></path></g><g transform="translate(566 579)"><path d="M24.6 -7.1C28.1 3 24.8 16.2 16.4 22.2C8 28.2 -5.4 27.1 -13.9 20.6C-22.4 14.1 -26 2.2 -22.8 -7.3C-19.7 -16.8 -9.8 -23.9 0.3 -24C10.5 -24.2 21 -17.2 24.6 -7.1Z" fill="#28bf96"></path></g><g transform="translate(460 125)"><path d="M13.3 -3.8C15.4 2 13.8 9.4 9.1 13C4.3 16.6 -3.7 16.3 -8.6 12.6C-13.5 8.8 -15.4 1.6 -13.5 -4C-11.5 -9.6 -5.8 -13.5 -0.1 -13.5C5.6 -13.5 11.3 -9.5 13.3 -3.8Z" fill="#28bf96"></path></g></g></svg>